<svg id="Слой_1" data-name="Слой 1" xmlns="http://www.w3.org/2000/svg" viewBox="0 0 640.87 394"><defs><style>.cls-1,.cls-2,.cls-3,.cls-4,.cls-5,.cls-6{fill:none;stroke:#000;stroke-miterlimit:10;}.cls-1{stroke-width:2px;}.cls-2{stroke-width:1.3px;}.cls-3{stroke-width:2.6px;}.cls-4{stroke-width:3.4px;}.cls-5{stroke-width:2.2px;}.cls-6{stroke-width:3.5px;}</style></defs><path d="M416,432.36v4.18H382.07v69.3H377V432.36Z" transform="translate(-376.99 -169.59)"/><path d="M477.54,432.36v4.13H438V467h39.54v4.13H438V501.7h39.54v4.14H433V432.36Z" transform="translate(-376.99 -169.59)"/><path d="M558.75,442.35a38.74,38.74,0,0,1,0,53.31,35.31,35.31,0,0,1-49.91,1.4c-.48-.45-.94-.92-1.39-1.4a38.72,38.72,0,0,1,0-53.31,35.3,35.3,0,0,1,49.9-1.4C557.83,441.4,558.29,441.87,558.75,442.35Zm-25.65-6.82a30.47,30.47,0,0,0-22.78,9.8,34.45,34.45,0,0,0,0,47.37,31.31,31.31,0,0,0,44.26,1.3c.44-.42.87-.85,1.3-1.3a34.47,34.47,0,0,0,0-47.37A30.5,30.5,0,0,0,533.1,435.53Z" transform="translate(-376.99 -169.59)"/><path d="M595.19,432.36l33.47,47.76,33.42-47.76h5.73l-.22.32v73.16h-5v-66l-33.92,48.41-34-48.41v66h-5V432.68l-.23-.32Z" transform="translate(-376.99 -169.59)"/><path d="M734.44,432.36v4.13H694.92V467h39.54v4.13H694.92V501.7h39.54v4.14H689.92V432.36Z" transform="translate(-376.99 -169.59)"/><path d="M777.11,436.49v69.35h-5V436.49H749.54v-4.13h50.13v4.13Z" transform="translate(-376.99 -169.59)"/><path d="M821.18,480.35v25.49h-5V432.36h23.39a32.27,32.27,0,0,1,17.32,7q8.52,7,8.52,16.95t-8.52,17a31.23,31.23,0,0,1-20.55,7Zm0-43.81v39.63h15.15a25.84,25.84,0,0,0,17-5.81q7-5.81,7-14t-7-14a25.94,25.94,0,0,0-17-5.78Z" transform="translate(-376.99 -169.59)"/><path d="M951.29,432.36v73.48h-5V439l-57.87,66.84h-7.75V432.36h5.07v68.42l59.18-68.42Z" transform="translate(-376.99 -169.59)"/><path d="M976.31,505.84h-6.18l20.55-26.13a30.16,30.16,0,0,1-13.53-6.39q-8.52-7-8.52-17t8.52-16.95a32.2,32.2,0,0,1,17.32-7h23.39v73.48h-5.07V480.39H996.14Zm21.39-69.26a26,26,0,0,0-17,5.77q-7.05,5.76-7,14t7,14a25.86,25.86,0,0,0,17,5.79h15.09V436.58Z" transform="translate(-376.99 -169.59)"/><line class="cls-1" y1="353.94" x2="640.86" y2="356.01"/><path d="M550.34,557.77h3v.15a5,5,0,0,1-1,2.85c-1.32,1.88-3.63,2.81-6.91,2.81q-5.52,0-8.35-3.8a16.71,16.71,0,0,1,0-17.53q2.85-3.79,8.36-3.79,4.92,0,6.9,2.82a5.09,5.09,0,0,1,1,2.84v.16h-3v-.16a2.77,2.77,0,0,0-1.59-2.56,7.19,7.19,0,0,0-9.22,2.62,15.8,15.8,0,0,0,0,13.69,6.48,6.48,0,0,0,6,3.35,6.57,6.57,0,0,0,3.22-.71,2.78,2.78,0,0,0,1.58-2.59Z" transform="translate(-376.99 -169.59)"/><path d="M565.92,562.86V541.79h-8.5v-2.61h20.12v2.61h-8.38v21.07Z" transform="translate(-376.99 -169.59)"/><path d="M585.92,562.86h-3.25V539.18h7a14.52,14.52,0,0,1,5.62.76c2.2,1,3.29,2.95,3.29,5.72a7,7,0,0,1-2.8,5.93,10.94,10.94,0,0,1-6.72,1.92h-3.14Zm0-11.72h2.2a9.64,9.64,0,0,0,5-1.06,4.72,4.72,0,0,0,2-4.28,3.79,3.79,0,0,0-1.53-3.4,7.22,7.22,0,0,0-3.94-.84h-3.73Z" transform="translate(-376.99 -169.59)"/><path d="M614,563.58a9.52,9.52,0,0,1-8.17-3.89,16.59,16.59,0,0,1,0-17.34,10.56,10.56,0,0,1,14.86-1.48,10.89,10.89,0,0,1,1.48,1.48,16.47,16.47,0,0,1,0,17.34A9.48,9.48,0,0,1,614,563.58Zm0-2.38a6.2,6.2,0,0,0,5.76-3.45,15.8,15.8,0,0,0,0-13.44,6.51,6.51,0,0,0-8.8-2.71,6.44,6.44,0,0,0-2.71,2.71,15.78,15.78,0,0,0,0,13.43A6.19,6.19,0,0,0,614,561.2Z" transform="translate(-376.99 -169.59)"/><path d="M649.3,562.86h-3.19l.13-19.33-12.32,19.33h-3.11V539.18H634l-.16,19.4L646,539.18h3.24Z" transform="translate(-376.99 -169.59)"/><path d="M663,562.86V541.79H654.5v-2.61h20.12v2.61h-8.38v21.07Z" transform="translate(-376.99 -169.59)"/><path d="M679.8,562.86V539.18h14.12v2.61H683.06v7.46h9.49v2.37h-9.49v8.64H694.8v2.6Z" transform="translate(-376.99 -169.59)"/><path d="M698.77,560.41a9.08,9.08,0,0,0,2,.18,3.27,3.27,0,0,0,3.29-2.35,13.33,13.33,0,0,0,.53-4.26v-14.8h14.57v23.68h-3.26V541.79h-8.07V554q0,9-6.56,9a9.6,9.6,0,0,1-2.45-.28Z" transform="translate(-376.99 -169.59)"/><path d="M742.22,556.38c0,2.78-1.09,4.68-3.29,5.71a14.34,14.34,0,0,1-5.62.77h-7.14V539.18h3.26v9.35h3.27a10.94,10.94,0,0,1,6.72,1.93A7,7,0,0,1,742.22,556.38Zm-3.37-.14a4.7,4.7,0,0,0-2-4.27,9.65,9.65,0,0,0-5-1.07h-2.37v9.6h3.94a7.25,7.25,0,0,0,4-.86A3.81,3.81,0,0,0,738.85,556.24Z" transform="translate(-376.99 -169.59)"/><path d="M763.06,557.77h3v.15a5,5,0,0,1-1,2.85c-1.32,1.88-3.63,2.81-6.91,2.81q-5.52,0-8.35-3.8a16.71,16.71,0,0,1,0-17.53q2.85-3.79,8.36-3.79,4.92,0,6.9,2.82a5.09,5.09,0,0,1,1,2.84v.16h-3v-.16a2.77,2.77,0,0,0-1.59-2.56,7.19,7.19,0,0,0-9.22,2.62,15.8,15.8,0,0,0,0,13.69,6.48,6.48,0,0,0,6,3.35,6.57,6.57,0,0,0,3.22-.71,2.78,2.78,0,0,0,1.58-2.59Z" transform="translate(-376.99 -169.59)"/><path d="M778.63,562.86V541.79h-8.5v-2.61h20.12v2.61h-8.33v21.07Z" transform="translate(-376.99 -169.59)"/><path d="M806.68,550.41q5.63,1.3,5.62,6a6,6,0,0,1-3.53,5.57q-1.71.9-5.85.9h-7.49v-23.7h6.64a19.7,19.7,0,0,1,6.11.61,4.52,4.52,0,0,1,3.12,4.5Q811.3,548.19,806.68,550.41Zm-8-.93h3.13a8.35,8.35,0,0,0,3.63-.61,5,5,0,0,0,1.89-1.72,4.35,4.35,0,0,0,.73-2.37q0-3.22-5.15-3.22h-4.23Zm0,11h4.6c3.76,0,5.65-1.29,5.65-3.88,0-1.81-1-3.18-3.06-4.09a12.52,12.52,0,0,0-4.77-.67h-2.42Z" transform="translate(-376.99 -169.59)"/><path d="M828.48,563.58a9.49,9.49,0,0,1-8.17-3.89,16.59,16.59,0,0,1,0-17.34,10.56,10.56,0,0,1,14.86-1.48,10.89,10.89,0,0,1,1.48,1.48,16.47,16.47,0,0,1,0,17.34A9.48,9.48,0,0,1,828.48,563.58Zm0-2.38a6.2,6.2,0,0,0,5.76-3.45,15.8,15.8,0,0,0,0-13.44,6.51,6.51,0,0,0-8.8-2.71,6.44,6.44,0,0,0-2.71,2.71,15.78,15.78,0,0,0,0,13.43A6.19,6.19,0,0,0,828.48,561.2Z" transform="translate(-376.99 -169.59)"/><line class="cls-2" x1="132.78" y1="76.42" x2="132.97" y2="167.6"/><line class="cls-2" x1="138.77" y1="74.88" x2="138.95" y2="168.98"/><line class="cls-2" x1="144.76" y1="73.35" x2="144.93" y2="170.36"/><line class="cls-2" x1="150.75" y1="71.82" x2="150.91" y2="171.74"/><line class="cls-2" x1="156.74" y1="70.29" x2="156.89" y2="173.12"/><line class="cls-2" x1="162.73" y1="68.76" x2="162.86" y2="174.49"/><line class="cls-2" x1="168.72" y1="67.23" x2="168.84" y2="175.87"/><line class="cls-2" x1="174.71" y1="65.7" x2="174.82" y2="177.25"/><line class="cls-2" x1="180.7" y1="64.17" x2="180.8" y2="178.63"/><line class="cls-2" x1="186.69" y1="62.64" x2="186.78" y2="180.01"/><line class="cls-2" x1="192.68" y1="61.11" x2="192.76" y2="181.38"/><line class="cls-2" x1="224.93" y1="73.29" x2="224.88" y2="89.5"/><line class="cls-2" x1="222.06" y1="72.19" x2="222.02" y2="90.21"/><line class="cls-2" x1="219.18" y1="71.08" x2="219.16" y2="90.92"/><line class="cls-2" x1="216.3" y1="69.98" x2="216.29" y2="91.62"/><line class="cls-2" x1="213.43" y1="68.87" x2="213.43" y2="92.33"/><line class="cls-2" x1="210.55" y1="67.77" x2="210.57" y2="93.04"/><line class="cls-2" x1="207.67" y1="66.66" x2="207.7" y2="93.75"/><line class="cls-2" x1="204.8" y1="65.56" x2="204.84" y2="94.46"/><line class="cls-2" x1="201.92" y1="64.45" x2="201.98" y2="95.17"/><line class="cls-2" x1="199.04" y1="63.35" x2="199.11" y2="95.88"/><line class="cls-2" x1="196.17" y1="62.24" x2="196.25" y2="96.58"/><line class="cls-1" x1="93.83" y1="116.43" x2="132.48" y2="107.49"/><line class="cls-1" x1="93.8" y1="121.57" x2="132.52" y2="114.89"/><line class="cls-1" x1="93.77" y1="126.72" x2="132.55" y2="122.28"/><line class="cls-1" x1="93.73" y1="131.86" x2="132.58" y2="129.68"/><line class="cls-1" x1="93.7" y1="137.01" x2="132.62" y2="137.07"/><line class="cls-1" x1="93.67" y1="142.16" x2="132.65" y2="144.47"/><line class="cls-1" x1="93.63" y1="147.3" x2="132.69" y2="151.86"/><line class="cls-1" x1="93.6" y1="152.45" x2="132.72" y2="159.26"/><line class="cls-1" x1="93.57" y1="157.59" x2="132.75" y2="166.65"/><line class="cls-3" x1="192.76" y1="96.12" x2="252.28" y2="83.49"/><line class="cls-3" x1="192.7" y1="106.65" x2="252.36" y2="96.98"/><line class="cls-3" x1="192.65" y1="117.19" x2="252.44" y2="110.47"/><line class="cls-3" x1="192.6" y1="127.72" x2="252.53" y2="123.97"/><line class="cls-3" x1="192.55" y1="138.25" x2="252.61" y2="137.46"/><line class="cls-3" x1="192.49" y1="148.79" x2="252.69" y2="150.95"/><line class="cls-3" x1="192.44" y1="159.32" x2="252.77" y2="164.45"/><line class="cls-3" x1="192.39" y1="169.85" x2="252.85" y2="177.94"/><line class="cls-3" x1="192.33" y1="180.39" x2="252.93" y2="191.43"/><line class="cls-4" x1="254.13" y1="28.34" x2="254.36" y2="192.69"/><line class="cls-4" x1="266.87" y1="24.79" x2="267.08" y2="195.1"/><line class="cls-4" x1="279.6" y1="21.25" x2="279.8" y2="197.52"/><line class="cls-4" x1="292.34" y1="17.71" x2="292.52" y2="199.93"/><line class="cls-4" x1="305.07" y1="14.17" x2="305.24" y2="202.34"/><line class="cls-4" x1="317.81" y1="10.63" x2="317.96" y2="204.75"/><line class="cls-4" x1="330.54" y1="7.09" x2="330.68" y2="207.17"/><line class="cls-4" x1="343.28" y1="3.54" x2="343.4" y2="209.58"/><line class="cls-4" x1="356.01" x2="356.11" y2="211.99"/><line class="cls-5" x1="407.58" y1="26.78" x2="407.49" y2="52.73"/><line class="cls-5" x1="401.77" y1="23.74" x2="401.74" y2="54.01"/><line class="cls-5" x1="395.96" y1="20.71" x2="396" y2="55.29"/><line class="cls-5" x1="390.15" y1="17.67" x2="390.25" y2="56.57"/><line class="cls-5" x1="384.35" y1="14.64" x2="384.5" y2="57.85"/><line class="cls-5" x1="378.54" y1="11.6" x2="378.75" y2="59.13"/><line class="cls-5" x1="372.73" y1="8.57" x2="373" y2="60.41"/><line class="cls-5" x1="366.92" y1="5.53" x2="367.25" y2="61.69"/><line class="cls-5" x1="361.12" y1="2.5" x2="361.5" y2="62.97"/><line class="cls-6" x1="355.26" y1="64.55" x2="477.07" y2="39.94"/><line class="cls-6" x1="355.22" y1="82.77" x2="476.91" y2="64.22"/><line class="cls-6" x1="355.17" y1="100.99" x2="476.96" y2="88.51"/><line class="cls-6" x1="355.13" y1="119.22" x2="477.02" y2="112.79"/><line class="cls-6" x1="355.09" y1="137.44" x2="477.07" y2="137.07"/><line class="cls-6" x1="355.04" y1="155.67" x2="477.12" y2="161.35"/><line class="cls-6" x1="355" y1="173.89" x2="477.17" y2="185.63"/><line class="cls-6" x1="354.96" y1="192.12" x2="477.23" y2="209.91"/><line class="cls-6" x1="354.91" y1="210.34" x2="476.96" y2="234.62"/><line class="cls-6" x1="538.3" y1="61.56" x2="538.3" y2="211.99"/><line class="cls-6" x1="528.3" y1="58.08" x2="528.3" y2="215.42"/><line class="cls-6" x1="518.3" y1="54.59" x2="518.3" y2="219.33"/><line class="cls-6" x1="508.3" y1="50.28" x2="508.3" y2="222.79"/><line class="cls-6" x1="498.3" y1="47.63" x2="498.3" y2="226.48"/><path class="cls-6" d="M865.3,213.49v0Z" transform="translate(-376.99 -169.59)"/><line class="cls-6" x1="478.3" y1="38.28" x2="478.3" y2="236.28"/><line class="cls-6" x1="547.29" y1="208.42" x2="547.29" y2="64.69"/></svg>