<svg width="641" height="394" viewBox="0 0 641 394" fill="none" xmlns="http://www.w3.org/2000/svg">
<g clip-path="url(#clip0_1_2)">
<path d="M39.01 262.77V266.95H5.08001V336.25H0.0100021V262.77H39.01Z" fill="white"/>
<path d="M100.55 262.77V266.9H61.01V297.41H100.55V301.54H61.01V332.11H100.55V336.25H56.01V262.77H100.55Z" fill="white"/>
<path d="M181.76 272.76C188.584 279.957 192.388 289.497 192.388 299.415C192.388 309.333 188.584 318.873 181.76 326.07C175.327 332.873 166.454 336.842 157.095 337.105C147.735 337.367 138.655 333.902 131.85 327.47C131.37 327.02 130.91 326.55 130.46 326.07C123.632 318.875 119.825 309.334 119.825 299.415C119.825 289.496 123.632 279.955 130.46 272.76C136.892 265.958 145.762 261.988 155.12 261.726C164.478 261.463 173.557 264.929 180.36 271.36C180.84 271.81 181.3 272.28 181.76 272.76ZM156.11 265.94C151.838 265.885 147.602 266.729 143.678 268.418C139.753 270.106 136.228 272.601 133.33 275.74C127.272 282.138 123.896 290.614 123.896 299.425C123.896 308.236 127.272 316.712 133.33 323.11C136.151 326.101 139.533 328.508 143.284 330.192C147.035 331.877 151.081 332.806 155.191 332.927C159.301 333.047 163.394 332.357 167.237 330.896C171.081 329.435 174.599 327.231 177.59 324.41C178.03 323.99 178.46 323.56 178.89 323.11C184.943 316.71 188.316 308.234 188.316 299.425C188.316 290.616 184.943 282.14 178.89 275.74C175.991 272.602 172.465 270.108 168.541 268.42C164.617 266.732 160.382 265.887 156.11 265.94Z" fill="white"/>
<path d="M218.2 262.77L251.67 310.53L285.09 262.77H290.82L290.6 263.09V336.25H285.6V270.25L251.68 318.66L217.68 270.25V336.25H212.68V263.09L212.45 262.77H218.2Z" fill="white"/>
<path d="M357.45 262.77V266.9H317.93V297.41H357.47V301.54H317.93V332.11H357.47V336.25H312.93V262.77H357.45Z" fill="white"/>
<path d="M400.12 266.9V336.25H395.12V266.9H372.55V262.77H422.68V266.9H400.12Z" fill="white"/>
<path d="M444.19 310.76V336.25H439.19V262.77H462.58C468.917 263.345 474.943 265.78 479.9 269.77C485.58 274.437 488.42 280.087 488.42 286.72C488.42 293.353 485.58 299.02 479.9 303.72C474.108 308.436 466.817 310.919 459.35 310.72L444.19 310.76ZM444.19 266.95V306.58H459.34C465.519 306.739 471.551 304.678 476.34 300.77C481.007 296.897 483.34 292.23 483.34 286.77C483.34 281.31 481.007 276.643 476.34 272.77C471.542 268.881 465.514 266.831 459.34 266.99L444.19 266.95Z" fill="white"/>
<path d="M574.3 262.77V336.25H569.3V269.41L511.43 336.25H503.68V262.77H508.75V331.19L567.93 262.77H574.3Z" fill="white"/>
<path d="M599.32 336.25H593.14L613.69 310.12C608.715 309.16 604.062 306.963 600.16 303.73C594.48 299.063 591.64 293.397 591.64 286.73C591.64 280.063 594.48 274.413 600.16 269.78C605.115 265.786 611.142 263.351 617.48 262.78H640.87V336.26H635.8V310.8H619.15L599.32 336.25ZM620.71 266.99C614.538 266.834 608.512 268.879 603.71 272.76C599.01 276.6 596.677 281.267 596.71 286.76C596.743 292.253 599.077 296.92 603.71 300.76C608.503 304.659 614.534 306.713 620.71 306.55H635.8V266.99H620.71Z" fill="white"/>
<path d="M0 353.94L640.86 356.01" stroke="white" stroke-width="2" stroke-miterlimit="10"/>
<path d="M173.35 388.18H176.35V388.33C176.318 389.36 175.969 390.356 175.35 391.18C174.03 393.06 171.72 393.99 168.44 393.99C164.76 393.99 161.977 392.723 160.09 390.19C158.466 387.555 157.607 384.52 157.607 381.425C157.607 378.33 158.466 375.295 160.09 372.66C161.99 370.133 164.777 368.87 168.45 368.87C171.73 368.87 174.03 369.81 175.35 371.69C175.962 372.514 176.311 373.504 176.35 374.53V374.69H173.35V374.53C173.36 373.995 173.216 373.469 172.934 373.015C172.651 372.561 172.244 372.198 171.76 371.97C170.17 371.197 168.351 371.036 166.65 371.52C164.949 372.003 163.486 373.096 162.54 374.59C161.513 376.726 160.98 379.065 160.98 381.435C160.98 383.805 161.513 386.144 162.54 388.28C163.125 389.345 163.998 390.223 165.059 390.816C166.12 391.408 167.326 391.69 168.54 391.63C169.656 391.671 170.764 391.427 171.76 390.92C172.246 390.688 172.654 390.319 172.934 389.859C173.215 389.4 173.356 388.868 173.34 388.33L173.35 388.18Z" fill="white"/>
<path d="M188.93 393.27V372.2H180.43V369.59H200.55V372.2H192.17V393.27H188.93Z" fill="white"/>
<path d="M208.93 393.27H205.68V369.59H212.68C214.585 369.472 216.495 369.73 218.3 370.35C220.5 371.35 221.59 373.3 221.59 376.07C221.643 377.212 221.415 378.349 220.927 379.383C220.439 380.417 219.705 381.315 218.79 382C216.82 383.358 214.46 384.032 212.07 383.92H208.93V393.27ZM208.93 381.55H211.13C212.862 381.653 214.589 381.287 216.13 380.49C216.81 380.015 217.353 379.37 217.704 378.618C218.055 377.867 218.202 377.036 218.13 376.21C218.19 375.559 218.08 374.905 217.812 374.309C217.544 373.713 217.126 373.197 216.6 372.81C215.393 372.162 214.026 371.871 212.66 371.97H208.93V381.55Z" fill="white"/>
<path d="M237.01 393.99C235.432 394.07 233.86 393.757 232.433 393.078C231.007 392.399 229.772 391.375 228.84 390.1C227.241 387.491 226.394 384.49 226.394 381.43C226.394 378.37 227.241 375.369 228.84 372.76C230.614 370.593 233.177 369.22 235.964 368.943C238.75 368.665 241.533 369.506 243.7 371.28C244.24 371.725 244.735 372.22 245.18 372.76C246.792 375.364 247.647 378.367 247.647 381.43C247.647 384.493 246.792 387.496 245.18 390.1C244.25 391.378 243.016 392.403 241.589 393.083C240.162 393.762 238.588 394.074 237.01 393.99ZM237.01 391.61C238.2 391.649 239.376 391.344 240.397 390.732C241.419 390.12 242.243 389.227 242.77 388.16C243.758 386.058 244.27 383.763 244.27 381.44C244.27 379.117 243.758 376.822 242.77 374.72C242.37 373.964 241.825 373.294 241.167 372.749C240.508 372.204 239.749 371.794 238.931 371.542C238.114 371.29 237.255 371.202 236.404 371.282C235.553 371.363 234.726 371.61 233.97 372.01C232.813 372.617 231.867 373.563 231.26 374.72C230.272 376.821 229.76 379.114 229.76 381.435C229.76 383.756 230.272 386.049 231.26 388.15C231.784 389.218 232.606 390.113 233.625 390.727C234.645 391.34 235.82 391.647 237.01 391.61Z" fill="white"/>
<path d="M272.31 393.27H269.12L269.25 373.94L256.93 393.27H253.82V369.59H257.01L256.85 388.99L269.01 369.59H272.25L272.31 393.27Z" fill="white"/>
<path d="M286.01 393.27V372.2H277.51V369.59H297.63V372.2H289.25V393.27H286.01Z" fill="white"/>
<path d="M302.81 393.27V369.59H316.93V372.2H306.07V379.66H315.56V382.03H306.07V390.67H317.81V393.27H302.81Z" fill="white"/>
<path d="M321.78 390.82C322.438 390.954 323.109 391.014 323.78 391C324.512 391.034 325.235 390.821 325.832 390.394C326.428 389.968 326.864 389.354 327.07 388.65C327.476 387.268 327.655 385.829 327.6 384.39V369.59H342.17V393.27H338.91V372.2H330.84V384.41C330.84 390.41 328.653 393.41 324.28 393.41C323.455 393.422 322.631 393.328 321.83 393.13L321.78 390.82Z" fill="white"/>
<path d="M365.23 386.79C365.23 389.57 364.14 391.47 361.94 392.5C360.137 393.128 358.226 393.39 356.32 393.27H349.18V369.59H352.44V378.94H355.71C358.101 378.831 360.461 379.509 362.43 380.87C363.344 381.554 364.077 382.451 364.565 383.482C365.053 384.514 365.281 385.65 365.23 386.79ZM361.86 386.65C361.932 385.825 361.785 384.996 361.434 384.246C361.083 383.496 360.54 382.852 359.86 382.38C358.32 381.58 356.593 381.211 354.86 381.31H352.49V390.91H356.43C357.818 391.013 359.207 390.715 360.43 390.05C360.937 389.651 361.334 389.129 361.584 388.535C361.834 387.94 361.929 387.291 361.86 386.65Z" fill="white"/>
<path d="M386.07 388.18H389.07V388.33C389.038 389.36 388.689 390.356 388.07 391.18C386.75 393.06 384.44 393.99 381.16 393.99C377.48 393.99 374.697 392.723 372.81 390.19C371.186 387.555 370.327 384.52 370.327 381.425C370.327 378.33 371.186 375.295 372.81 372.66C374.71 370.133 377.497 368.87 381.17 368.87C384.45 368.87 386.75 369.81 388.07 371.69C388.682 372.514 389.031 373.504 389.07 374.53V374.69H386.07V374.53C386.08 373.995 385.936 373.469 385.654 373.015C385.371 372.561 384.964 372.198 384.48 371.97C382.89 371.197 381.071 371.036 379.37 371.52C377.669 372.003 376.206 373.096 375.26 374.59C374.233 376.726 373.7 379.065 373.7 381.435C373.7 383.805 374.233 386.144 375.26 388.28C375.845 389.345 376.718 390.223 377.779 390.816C378.84 391.408 380.046 391.69 381.26 391.63C382.376 391.671 383.484 391.427 384.48 390.92C384.966 390.688 385.374 390.319 385.654 389.859C385.935 389.4 386.076 388.868 386.06 388.33L386.07 388.18Z" fill="white"/>
<path d="M401.64 393.27V372.2H393.14V369.59H413.26V372.2H404.93V393.27H401.64Z" fill="white"/>
<path d="M429.69 380.82C433.443 381.687 435.317 383.687 435.31 386.82C435.33 387.992 435.006 389.144 434.379 390.133C433.752 391.123 432.848 391.908 431.78 392.39C430.64 392.99 428.69 393.29 425.93 393.29H418.44V369.59H425.08C427.136 369.473 429.198 369.678 431.19 370.2C432.131 370.505 432.945 371.111 433.509 371.924C434.073 372.737 434.354 373.712 434.31 374.7C434.31 377.3 432.77 379.34 429.69 380.82ZM421.69 379.89H424.82C426.06 379.959 427.3 379.751 428.45 379.28C429.218 378.88 429.87 378.287 430.34 377.56C430.808 376.858 431.062 376.034 431.07 375.19C431.07 373.043 429.353 371.97 425.92 371.97H421.69V379.89ZM421.69 390.89H426.29C430.05 390.89 431.94 389.6 431.94 387.01C431.94 385.2 430.94 383.83 428.88 382.92C427.348 382.39 425.728 382.162 424.11 382.25H421.69V390.89Z" fill="white"/>
<path d="M451.49 393.99C449.912 394.073 448.338 393.761 446.911 393.081C445.485 392.402 444.25 391.377 443.32 390.1C441.721 387.491 440.874 384.49 440.874 381.43C440.874 378.37 441.721 375.369 443.32 372.76C445.094 370.593 447.657 369.22 450.443 368.943C453.23 368.665 456.013 369.506 458.18 371.28C458.72 371.725 459.215 372.22 459.66 372.76C461.273 375.364 462.127 378.367 462.127 381.43C462.127 384.493 461.273 387.496 459.66 390.1C458.73 391.378 457.496 392.403 456.069 393.083C454.642 393.762 453.068 394.074 451.49 393.99ZM451.49 391.61C452.68 391.649 453.856 391.344 454.877 390.732C455.899 390.12 456.723 389.227 457.25 388.16C458.238 386.058 458.75 383.763 458.75 381.44C458.75 379.117 458.238 376.822 457.25 374.72C456.85 373.964 456.305 373.294 455.647 372.749C454.988 372.204 454.229 371.794 453.411 371.542C452.594 371.29 451.735 371.202 450.884 371.282C450.033 371.363 449.206 371.61 448.45 372.01C447.293 372.617 446.347 373.563 445.74 374.72C444.752 376.821 444.24 379.114 444.24 381.435C444.24 383.756 444.752 386.049 445.74 388.15C446.264 389.218 447.086 390.113 448.105 390.727C449.125 391.34 450.3 391.647 451.49 391.61Z" fill="white"/>
<path d="M132.78 76.42L132.97 167.6" stroke="white" stroke-width="1.3" stroke-miterlimit="10"/>
<path d="M138.77 74.88L138.95 168.98" stroke="white" stroke-width="1.3" stroke-miterlimit="10"/>
<path d="M144.76 73.35L144.93 170.36" stroke="white" stroke-width="1.3" stroke-miterlimit="10"/>
<path d="M150.75 71.82L150.91 171.74" stroke="white" stroke-width="1.3" stroke-miterlimit="10"/>
<path d="M156.74 70.29L156.89 173.12" stroke="white" stroke-width="1.3" stroke-miterlimit="10"/>
<path d="M162.73 68.76L162.86 174.49" stroke="white" stroke-width="1.3" stroke-miterlimit="10"/>
<path d="M168.72 67.23L168.84 175.87" stroke="white" stroke-width="1.3" stroke-miterlimit="10"/>
<path d="M174.71 65.7L174.82 177.25" stroke="white" stroke-width="1.3" stroke-miterlimit="10"/>
<path d="M180.7 64.17L180.8 178.63" stroke="white" stroke-width="1.3" stroke-miterlimit="10"/>
<path d="M186.69 62.64L186.78 180.01" stroke="white" stroke-width="1.3" stroke-miterlimit="10"/>
<path d="M192.68 61.11L192.76 181.38" stroke="white" stroke-width="1.3" stroke-miterlimit="10"/>
<path d="M224.93 73.29L224.88 89.5" stroke="white" stroke-width="1.3" stroke-miterlimit="10"/>
<path d="M222.06 72.19L222.02 90.21" stroke="white" stroke-width="1.3" stroke-miterlimit="10"/>
<path d="M219.18 71.08L219.16 90.92" stroke="white" stroke-width="1.3" stroke-miterlimit="10"/>
<path d="M216.3 69.98L216.29 91.62" stroke="white" stroke-width="1.3" stroke-miterlimit="10"/>
<path d="M213.43 68.87V92.33" stroke="white" stroke-width="1.3" stroke-miterlimit="10"/>
<path d="M210.55 67.77L210.57 93.04" stroke="white" stroke-width="1.3" stroke-miterlimit="10"/>
<path d="M207.67 66.66L207.7 93.75" stroke="white" stroke-width="1.3" stroke-miterlimit="10"/>
<path d="M204.8 65.56L204.84 94.46" stroke="white" stroke-width="1.3" stroke-miterlimit="10"/>
<path d="M201.92 64.45L201.98 95.17" stroke="white" stroke-width="1.3" stroke-miterlimit="10"/>
<path d="M199.04 63.35L199.11 95.88" stroke="white" stroke-width="1.3" stroke-miterlimit="10"/>
<path d="M196.17 62.24L196.25 96.58" stroke="white" stroke-width="1.3" stroke-miterlimit="10"/>
<path d="M93.83 116.43L132.48 107.49" stroke="white" stroke-width="2" stroke-miterlimit="10"/>
<path d="M93.8 121.57L132.52 114.89" stroke="white" stroke-width="2" stroke-miterlimit="10"/>
<path d="M93.77 126.72L132.55 122.28" stroke="white" stroke-width="2" stroke-miterlimit="10"/>
<path d="M93.73 131.86L132.58 129.68" stroke="white" stroke-width="2" stroke-miterlimit="10"/>
<path d="M93.7 137.01L132.62 137.07" stroke="white" stroke-width="2" stroke-miterlimit="10"/>
<path d="M93.67 142.16L132.65 144.47" stroke="white" stroke-width="2" stroke-miterlimit="10"/>
<path d="M93.63 147.3L132.69 151.86" stroke="white" stroke-width="2" stroke-miterlimit="10"/>
<path d="M93.6 152.45L132.72 159.26" stroke="white" stroke-width="2" stroke-miterlimit="10"/>
<path d="M93.57 157.59L132.75 166.65" stroke="white" stroke-width="2" stroke-miterlimit="10"/>
<path d="M192.76 96.12L252.28 83.49" stroke="white" stroke-width="2.6" stroke-miterlimit="10"/>
<path d="M192.7 106.65L252.36 96.98" stroke="white" stroke-width="2.6" stroke-miterlimit="10"/>
<path d="M192.65 117.19L252.44 110.47" stroke="white" stroke-width="2.6" stroke-miterlimit="10"/>
<path d="M192.6 127.72L252.53 123.97" stroke="white" stroke-width="2.6" stroke-miterlimit="10"/>
<path d="M192.55 138.25L252.61 137.46" stroke="white" stroke-width="2.6" stroke-miterlimit="10"/>
<path d="M192.49 148.79L252.69 150.95" stroke="white" stroke-width="2.6" stroke-miterlimit="10"/>
<path d="M192.44 159.32L252.77 164.45" stroke="white" stroke-width="2.6" stroke-miterlimit="10"/>
<path d="M192.39 169.85L252.85 177.94" stroke="white" stroke-width="2.6" stroke-miterlimit="10"/>
<path d="M192.33 180.39L252.93 191.43" stroke="white" stroke-width="2.6" stroke-miterlimit="10"/>
<path d="M254.13 28.34L254.36 192.69" stroke="white" stroke-width="3.4" stroke-miterlimit="10"/>
<path d="M266.87 24.79L267.08 195.1" stroke="white" stroke-width="3.4" stroke-miterlimit="10"/>
<path d="M279.6 21.25L279.8 197.52" stroke="white" stroke-width="3.4" stroke-miterlimit="10"/>
<path d="M292.34 17.71L292.52 199.93" stroke="white" stroke-width="3.4" stroke-miterlimit="10"/>
<path d="M305.07 14.17L305.24 202.34" stroke="white" stroke-width="3.4" stroke-miterlimit="10"/>
<path d="M317.81 10.63L317.96 204.75" stroke="white" stroke-width="3.4" stroke-miterlimit="10"/>
<path d="M330.54 7.09003L330.68 207.17" stroke="white" stroke-width="3.4" stroke-miterlimit="10"/>
<path d="M343.28 3.53998L343.4 209.58" stroke="white" stroke-width="3.4" stroke-miterlimit="10"/>
<path d="M356.01 0L356.11 211.99" stroke="white" stroke-width="3.4" stroke-miterlimit="10"/>
<path d="M407.58 26.78L407.49 52.73" stroke="white" stroke-width="2.2" stroke-miterlimit="10"/>
<path d="M401.77 23.74L401.74 54.01" stroke="white" stroke-width="2.2" stroke-miterlimit="10"/>
<path d="M395.96 20.71L396 55.29" stroke="white" stroke-width="2.2" stroke-miterlimit="10"/>
<path d="M390.15 17.67L390.25 56.57" stroke="white" stroke-width="2.2" stroke-miterlimit="10"/>
<path d="M384.35 14.64L384.5 57.85" stroke="white" stroke-width="2.2" stroke-miterlimit="10"/>
<path d="M378.54 11.6L378.75 59.13" stroke="white" stroke-width="2.2" stroke-miterlimit="10"/>
<path d="M372.73 8.57001L373 60.41" stroke="white" stroke-width="2.2" stroke-miterlimit="10"/>
<path d="M366.92 5.53003L367.25 61.69" stroke="white" stroke-width="2.2" stroke-miterlimit="10"/>
<path d="M361.12 2.5L361.5 62.97" stroke="white" stroke-width="2.2" stroke-miterlimit="10"/>
<path d="M355.26 64.55L477.07 39.94" stroke="white" stroke-width="3.5" stroke-miterlimit="10"/>
<path d="M355.22 82.77L476.91 64.22" stroke="white" stroke-width="3.5" stroke-miterlimit="10"/>
<path d="M355.17 100.99L476.96 88.51" stroke="white" stroke-width="3.5" stroke-miterlimit="10"/>
<path d="M355.13 119.22L477.02 112.79" stroke="white" stroke-width="3.5" stroke-miterlimit="10"/>
<path d="M355.09 137.44L477.07 137.07" stroke="white" stroke-width="3.5" stroke-miterlimit="10"/>
<path d="M355.04 155.67L477.12 161.35" stroke="white" stroke-width="3.5" stroke-miterlimit="10"/>
<path d="M355 173.89L477.17 185.63" stroke="white" stroke-width="3.5" stroke-miterlimit="10"/>
<path d="M354.96 192.12L477.23 209.91" stroke="white" stroke-width="3.5" stroke-miterlimit="10"/>
<path d="M354.91 210.34L476.96 234.62" stroke="white" stroke-width="3.5" stroke-miterlimit="10"/>
<path d="M538.3 61.56V211.99" stroke="white" stroke-width="3.5" stroke-miterlimit="10"/>
<path d="M528.3 58.08V215.42" stroke="white" stroke-width="3.5" stroke-miterlimit="10"/>
<path d="M518.3 54.59V219.33" stroke="white" stroke-width="3.5" stroke-miterlimit="10"/>
<path d="M508.3 50.28V222.79" stroke="white" stroke-width="3.5" stroke-miterlimit="10"/>
<path d="M498.3 47.63V226.48" stroke="white" stroke-width="3.5" stroke-miterlimit="10"/>
<path d="M478.3 38.28V236.28" stroke="white" stroke-width="3.5" stroke-miterlimit="10"/>
<path d="M547.29 208.42V64.69" stroke="white" stroke-width="3.5" stroke-miterlimit="10"/>
</g>
<defs>
<clipPath id="clip0_1_2">
<rect width="640.87" height="394" fill="white"/>
</clipPath>
</defs>
</svg>
